<svg width="198" height="40" viewBox="0 0 198 40" fill="none" xmlns="http://www.w3.org/2000/svg">
<path d="M18.1251 36.1817L16.5996 19.4698L22.3319 3.17426L25.1871 36.1817H18.1251Z" fill="#7A1A29"/>
<path d="M32.1826 36.1822L30.3296 17.6806L36.0157 0.0189779L39.6716 36.1822H32.1826Z" fill="#246172"/>
<path d="M4.42017 36.1822L15.4058 4.80927L22.3443 3.18726L11.6356 36.1822H4.42017Z" fill="#DA2C48"/>
<path d="M18.0576 36.1818L28.989 1.63394L36.0157 0L25.2731 36.1818H18.0576Z" fill="#26A9CC"/>
<path d="M32.2249 36.1832L39.8942 16.0952L48.1114 14.1752L40.5185 36.1832H32.2249Z" fill="#65C14B"/>
<path d="M4.29341 36.1797L0 25.385L6.93935 23.7804L11.5229 36.1797H4.29341Z" fill="#FF4F6B"/>
<path d="M75.3374 18.8386C76.6426 18.8386 77.6827 19.2126 78.4577 19.9606C79.253 20.7085 79.6711 21.6954 79.7119 22.9213V33.1436H75.4598V24.7289C75.419 24.0432 75.3068 23.5342 75.1233 23.2018C74.9397 22.8486 74.5828 22.6512 74.0526 22.6096C73.0533 22.6096 72.2681 23.1083 71.6971 24.1056C71.1465 25.0821 70.8711 26.2352 70.8711 27.5649V33.1436H66.5884V24.7289C66.5476 24.0432 66.4253 23.5342 66.2213 23.2018C66.0174 22.8486 65.6401 22.6512 65.0895 22.6096C64.1309 22.6096 63.3764 23.1083 62.8257 24.1056C62.2751 25.0821 61.9998 26.2144 61.9998 27.5026V33.1436H57.717V19.5242H61.6021L61.908 21.6747C62.9889 19.7839 64.6 18.8386 66.7414 18.8386C67.8222 18.8386 68.7094 19.0671 69.4028 19.5242C70.1166 19.9606 70.606 20.615 70.8711 21.4877C71.4422 20.6774 72.1152 20.0333 72.8901 19.5554C73.6855 19.0775 74.5013 18.8386 75.3374 18.8386Z" fill="white"/>
<path d="M97.5856 19.5242V33.1436H93.3029V31.4606C92.0181 32.8319 90.5293 33.5175 88.8366 33.5175C86.8584 33.5175 85.2473 32.915 84.0032 31.7099C82.7796 30.5049 82.1678 28.7181 82.1678 26.3495C82.1678 24.8535 82.4635 23.5446 83.0549 22.4226C83.6667 21.2799 84.4723 20.3969 85.4716 19.7736C86.4709 19.1502 87.5416 18.8386 88.6837 18.8386C89.8665 18.8386 90.8046 19.0256 91.498 19.3996C92.1914 19.7528 92.8032 20.2618 93.3335 20.9267L93.6088 19.5242H97.5856ZM90.0602 29.9647C91.549 29.9647 92.6299 29.279 93.3029 27.9078V24.573C93.0582 23.9082 92.6299 23.3784 92.0181 22.9836C91.4266 22.5888 90.723 22.3915 89.9073 22.3915C88.9692 22.3915 88.1636 22.7447 87.4906 23.4511C86.838 24.1575 86.5117 25.0509 86.5117 26.1313C86.5117 26.8377 86.6749 27.4922 87.0012 28.0947C87.3275 28.6765 87.7557 29.1336 88.286 29.466C88.8366 29.7985 89.428 29.9647 90.0602 29.9647Z" fill="white"/>
<path d="M105.272 22.6408C105.639 21.9136 106.139 21.2591 106.771 20.6774C107.423 20.0956 108.086 19.6489 108.759 19.3372C109.432 19.0048 109.962 18.8386 110.35 18.8386L110.136 23.2018C110.013 23.181 109.84 23.1706 109.616 23.1706C108.759 23.1706 108.005 23.3991 107.352 23.8562C106.699 24.3133 106.2 24.9055 105.853 25.6327C105.506 26.3391 105.333 27.0663 105.333 27.8143V33.1436H101.081V19.5242H104.935L105.272 22.6408Z" fill="white"/>
<path d="M127.072 19.5242V33.1436C127.072 34.4317 126.705 35.5952 125.97 36.6341C125.257 37.6937 124.278 38.5144 123.034 39.0962C121.81 39.6987 120.474 40 119.026 40C117.925 40 116.956 39.8649 116.12 39.5948C115.304 39.3247 114.642 39.0234 114.132 38.691C113.642 38.3586 113.051 37.9015 112.357 37.3197L114.866 34.3278C115.478 34.9096 116.079 35.3667 116.671 35.6991C117.283 36.0316 118.047 36.1978 118.965 36.1978C120.046 36.1978 120.953 35.9173 121.688 35.3563C122.422 34.8161 122.789 34.0577 122.789 33.0812V31.149C122.381 31.8554 121.749 32.4267 120.892 32.8631C120.056 33.2994 119.026 33.5175 117.803 33.5175C116.599 33.5175 115.478 33.2059 114.438 32.5826C113.418 31.9385 112.602 31.0659 111.99 29.9647C111.379 28.8427 111.073 27.6065 111.073 26.256C111.073 24.8847 111.389 23.6277 112.021 22.485C112.674 21.3422 113.52 20.4488 114.56 19.8047C115.62 19.1606 116.732 18.8386 117.894 18.8386C118.996 18.8386 119.975 19.0048 120.831 19.3372C121.688 19.6489 122.34 20.0644 122.789 20.5839L123.125 19.5242H127.072ZM119.087 29.9647C120.801 29.9647 122.034 29.279 122.789 27.9078V24.573C122.503 23.9082 122.024 23.3784 121.351 22.9836C120.699 22.5888 119.944 22.3915 119.087 22.3915C118.047 22.3915 117.17 22.7447 116.457 23.4511C115.743 24.1575 115.386 25.0509 115.386 26.1313C115.386 27.2117 115.743 28.1259 116.457 28.8739C117.17 29.6011 118.047 29.9647 119.087 29.9647Z" fill="white"/>
<path d="M134.836 19.5242V33.1436H130.553V19.5242H134.836ZM130.462 14.6936C130.462 14.0703 130.696 13.5509 131.165 13.1353C131.655 12.699 132.205 12.4808 132.817 12.4808C133.408 12.4808 133.939 12.699 134.408 13.1353C134.877 13.5509 135.111 14.0703 135.111 14.6936C135.111 15.3169 134.877 15.8363 134.408 16.2519C133.939 16.6674 133.408 16.8752 132.817 16.8752C132.205 16.8752 131.655 16.6674 131.165 16.2519C130.696 15.8363 130.462 15.3169 130.462 14.6936Z" fill="white"/>
<path d="M147.629 18.8698C148.893 18.8698 149.943 19.2541 150.779 20.0229C151.636 20.7916 152.074 21.7682 152.095 22.9524V33.1436H147.812V24.573C147.751 23.2433 147.098 22.5785 145.854 22.5785C144.875 22.5785 144.09 23.0459 143.499 23.9809C142.907 24.9159 142.612 26.1209 142.612 27.5961V33.1436H138.329V19.5242H142.214L142.52 21.7058C143.009 20.8124 143.682 20.1164 144.539 19.6177C145.416 19.1191 146.446 18.8698 147.629 18.8698Z" fill="white"/>
<path d="M160.91 8.55402V33.1436H156.628V8.55402H160.91Z" fill="#C1C5C9"/>
<path d="M178.781 19.5243V33.1436H174.498V31.4606C173.213 32.8319 171.725 33.5176 170.032 33.5176C168.054 33.5176 166.443 32.915 165.199 31.71C163.975 30.5049 163.363 28.7181 163.363 26.3495C163.363 24.8536 163.659 23.5446 164.25 22.4227C164.862 21.2799 165.668 20.3969 166.667 19.7736C167.666 19.1503 168.737 18.8386 169.879 18.8386C171.062 18.8386 172 19.0256 172.693 19.3996C173.387 19.7528 173.999 20.2618 174.529 20.9267L174.804 19.5243H178.781ZM171.256 29.9647C172.744 29.9647 173.825 29.2791 174.498 27.9078V24.5731C174.254 23.9082 173.825 23.3784 173.213 22.9836C172.622 22.5889 171.918 22.3915 171.103 22.3915C170.165 22.3915 169.359 22.7447 168.686 23.4511C168.033 24.1575 167.707 25.0509 167.707 26.1313C167.707 26.8378 167.87 27.4922 168.197 28.0948C168.523 28.6765 168.951 29.1336 169.481 29.4661C170.032 29.7985 170.623 29.9647 171.256 29.9647Z" fill="#C1C5C9"/>
<path d="M191.637 18.8386C192.8 18.8386 193.86 19.1295 194.819 19.7113C195.797 20.2722 196.572 21.0929 197.143 22.1733C197.714 23.2537 198 24.5419 198 26.0379C198 27.5338 197.684 28.8531 197.052 29.9959C196.419 31.1178 195.573 31.9905 194.513 32.6138C193.452 33.2163 192.3 33.5176 191.056 33.5176C189.241 33.5176 187.742 32.9358 186.559 31.7723V33.1436H182.276V8.55402H186.528V20.4592C187.099 19.9814 187.823 19.597 188.7 19.3061C189.577 18.9945 190.556 18.8386 191.637 18.8386ZM190.108 29.84C190.74 29.84 191.321 29.6738 191.851 29.3414C192.402 29.009 192.84 28.5519 193.167 27.9701C193.493 27.3676 193.656 26.7131 193.656 26.0067C193.656 24.9263 193.309 24.0329 192.616 23.3265C191.923 22.62 191.086 22.2668 190.108 22.2668C189.271 22.2668 188.537 22.4642 187.905 22.859C187.273 23.2537 186.824 23.7835 186.559 24.4484V27.7831C187.293 29.1544 188.476 29.84 190.108 29.84Z" fill="#C1C5C9"/>
</svg>
