<svg width="7" height="7" viewBox="0 0 7 7" fill="none" xmlns="http://www.w3.org/2000/svg">
<path d="M6.87355 1.55806L6.25937 0.943874C6.17515 0.859595 6.07273 0.81744 5.95234 0.81744C5.83184 0.81744 5.72942 0.859595 5.6452 0.943874L2.68258 3.91097L1.35483 2.5787C1.27052 2.49439 1.16816 2.45228 1.04777 2.45228C0.9273 2.45228 0.824942 2.49439 0.740632 2.5787L0.126449 3.1929C0.0421392 3.27719 0 3.37958 0 3.50004C0 3.62039 0.0421392 3.72288 0.126449 3.80716L1.76126 5.44194L2.37549 6.05612C2.45975 6.14046 2.56214 6.18257 2.68258 6.18257C2.80297 6.18257 2.90536 6.14035 2.98967 6.05612L3.60388 5.44194L6.87355 2.17229C6.95778 2.08798 7 1.9856 7 1.86515C7.00006 1.74476 6.95778 1.64237 6.87355 1.55806Z" fill="#74D900"/>
</svg>
