<svg width="11" height="11" viewBox="0 0 11 11" fill="none" xmlns="http://www.w3.org/2000/svg">
<path d="M5.5 1C3.0187 1 1 3.0187 1 5.5C1 7.9813 3.0187 10 5.5 10C7.9813 10 10 7.9813 10 5.5C10 3.0187 7.9813 1 5.5 1ZM5.5 9.04248C3.5467 9.04248 1.95743 7.4534 1.95743 5.5C1.95743 3.5466 3.5467 1.95752 5.5 1.95752C7.4533 1.95752 9.04257 3.5466 9.04257 5.5C9.04257 7.4534 7.4533 9.04248 5.5 9.04248Z" fill="#5C6571" stroke="#5C6571" stroke-width="0.3"/>
<path d="M7.84527 5.36104H5.82295V2.92948C5.82295 2.72486 5.65705 2.55896 5.45243 2.55896C5.24781 2.55896 5.08191 2.72486 5.08191 2.92948V5.73156C5.08191 5.93618 5.24781 6.10208 5.45243 6.10208H7.84527C8.04989 6.10208 8.21579 5.93618 8.21579 5.73156C8.21579 5.52694 8.04989 5.36104 7.84527 5.36104Z" fill="#5C6571" stroke="#5C6571" stroke-width="0.3"/>
</svg>
