<svg width="14" height="14" viewBox="0 0 14 14" fill="none" xmlns="http://www.w3.org/2000/svg">
<path d="M9.90674 11.6845V11.6822C10.1689 11.4222 10.3845 11.1378 10.5598 10.8333C10.742 10.52 10.8798 10.1845 10.9712 9.83995C11.0645 9.49316 11.1112 9.13553 11.1112 8.77778C11.1112 8.42003 11.0645 8.06217 10.9712 7.71332C10.88 7.36892 10.7422 7.03559 10.5598 6.72005C10.3845 6.41558 10.1665 6.13108 9.90674 5.87109C9.64697 5.61111 9.36008 5.39106 9.05561 5.21582C8.74224 5.03353 8.40674 4.89779 8.06451 4.80664C7.71587 4.71332 7.35758 4.66667 7.00005 4.66667C6.64252 4.66667 6.28423 4.71332 5.9356 4.80664C5.59337 4.89779 5.25787 5.03353 4.9445 5.21799C4.64003 5.39334 4.35335 5.61133 4.09337 5.87109C3.83339 6.13086 3.61561 6.41775 3.44027 6.72222C3.25808 7.03559 3.12028 7.37109 3.02892 7.71332C2.9356 8.06 2.88894 8.41775 2.88894 8.77561C2.88894 9.13314 2.9356 9.4911 3.02892 9.83995C3.20676 10.5155 3.56201 11.1556 4.09337 11.6845C4.35335 11.9444 4.64003 12.1622 4.9445 12.3376C5.25787 12.5197 5.59337 12.6576 5.9356 12.7489C6.28423 12.8422 6.64252 12.8889 7.00005 12.8889C7.35758 12.8889 7.71587 12.8422 8.06451 12.7489C8.40674 12.6578 8.74224 12.52 9.05561 12.3376C9.36008 12.1622 9.64676 11.9444 9.90674 11.6845ZM9.33339 2.22222C9.33339 2.22222 12.2223 5.08442 12.2223 8.77778C12.2223 11.6645 9.88677 14 7.00005 14C4.11334 14 1.77783 11.6645 1.77783 8.77778C1.77783 3.04666 7.33339 0 7.33339 0C7.33339 0 6.78228 1.67112 7.55344 2.44444C8.32699 3.21582 9.33339 2.22222 9.33339 2.22222Z" fill="#F14747"/>
<path d="M6.22224 2.46864C6.22224 2.46864 4.32694 3.79623 4.26184 5.71181L8.02117 4.77778C6.14162 4.09017 6.22224 2.46864 6.22224 2.46864Z" fill="#FFAB00"/>
<path d="M7.22846 8.54959C7.10335 8.4222 6.89871 8.4222 6.77143 8.54959C6.64426 8.67448 6.64426 8.87891 6.77143 9.00619C6.83632 9.06869 6.91802 9.10113 6.99984 9.10113C7.08404 9.10113 7.16564 9.06869 7.22824 9.00619C7.35585 8.87891 7.35585 8.67426 7.22846 8.54959ZM9.5147 6.26313C10.9025 7.6531 10.9025 9.90267 9.5147 11.2926C8.12712 12.6807 5.87495 12.6807 4.48519 11.2907C3.09738 9.90267 3.09738 7.65072 4.48519 6.26313C5.87516 4.87511 8.12516 4.87511 9.5147 6.26313Z" fill="white"/>
<path d="M7.23577 8.65332C7.20734 8.65332 7.17891 8.64247 7.1571 8.62088C7.11381 8.57759 7.11381 8.50717 7.1571 8.46376L8.72796 6.89269C8.77136 6.84929 8.84178 6.84929 8.88508 6.89269C8.92848 6.93598 8.92848 7.00641 8.88508 7.04981L7.31422 8.62088C7.29241 8.64269 7.26398 8.65332 7.23577 8.65332Z" fill="#434A54"/>
<path d="M6.99991 10.6177C6.9386 10.6177 6.88879 10.568 6.88879 10.5066V9.11111C6.88879 9.04981 6.9386 9 6.99991 9C7.06121 9 7.11102 9.04981 7.11102 9.11111V10.5066C7.11102 10.5683 7.06121 10.6177 6.99991 10.6177Z" fill="#434A54"/>
<path d="M6.99999 4.66667C6.9631 4.66667 6.92642 4.66938 6.88953 4.67047C6.89181 4.73004 6.93977 4.77778 6.99999 4.77778C7.06022 4.77778 7.10818 4.73004 7.11046 4.67047C7.07357 4.66938 7.03689 4.66667 6.99999 4.66667Z" fill="#434A54"/>
<path d="M6.99999 12.8889C7.03689 12.8889 7.07357 12.8862 7.11046 12.8851C7.10818 12.8255 7.06022 12.7778 6.99999 12.7778C6.93977 12.7778 6.89181 12.8255 6.88953 12.8851C6.92642 12.8862 6.9631 12.8889 6.99999 12.8889Z" fill="#434A54"/>
<path d="M5.936 4.80686C5.90041 4.8164 5.86579 4.82845 5.8302 4.83908C5.84778 4.89626 5.9067 4.92979 5.96443 4.91417C6.02269 4.89865 6.05687 4.83995 6.04331 4.78179C6.00761 4.79047 5.97159 4.79731 5.936 4.80686Z" fill="#434A54"/>
<path d="M8.06401 12.7489C8.09981 12.7394 8.13421 12.7273 8.17001 12.7165C8.15222 12.6595 8.0933 12.6258 8.03558 12.6414C7.97731 12.6569 7.94313 12.7156 7.9567 12.7738C7.99239 12.7653 8.02842 12.7585 8.06401 12.7489Z" fill="#434A54"/>
<path d="M4.94436 5.21756C4.91235 5.23601 4.88219 5.25641 4.85083 5.27605C4.88262 5.32672 4.94816 5.34376 4.9997 5.31381C5.05189 5.28332 5.06991 5.21799 5.04191 5.16537C5.00925 5.18316 4.97637 5.19911 4.94436 5.21756Z" fill="#434A54"/>
<path d="M9.05555 12.3382C9.08778 12.3198 9.11773 12.2992 9.14952 12.2793C9.11751 12.2288 9.05219 12.2116 9.00022 12.2418C8.94802 12.272 8.93001 12.3374 8.95822 12.39C8.99067 12.3729 9.02354 12.3567 9.05555 12.3382Z" fill="#434A54"/>
<path d="M4.09301 5.8711C4.06697 5.89714 4.04277 5.9247 4.0177 5.95161C4.06121 5.99219 4.12925 5.99175 4.17125 5.94954C4.21389 5.90669 4.21433 5.83887 4.17374 5.79514C4.14683 5.82086 4.11905 5.84516 4.09301 5.8711Z" fill="#434A54"/>
<path d="M9.90704 11.6849C9.9333 11.6589 9.95728 11.6311 9.98256 11.6038C9.93883 11.5634 9.87101 11.5636 9.8288 11.6065C9.78616 11.6489 9.78551 11.7167 9.82641 11.7602C9.85322 11.7354 9.88099 11.7112 9.90704 11.6849Z" fill="#434A54"/>
<path d="M3.4397 6.72266C3.42125 6.75445 3.4053 6.78733 3.38794 6.81978C3.44035 6.84777 3.50588 6.82976 3.53594 6.77822C3.5661 6.72559 3.54907 6.66027 3.49818 6.62826C3.47876 6.66027 3.45836 6.69043 3.4397 6.72266Z" fill="#434A54"/>
<path d="M10.5604 10.8333C10.5791 10.8013 10.5948 10.7684 10.6124 10.7355C10.5595 10.708 10.4942 10.7258 10.4644 10.7778C10.434 10.8297 10.4508 10.8955 10.5017 10.9271C10.5215 10.896 10.5422 10.8655 10.5604 10.8333Z" fill="#434A54"/>
<path d="M3.02924 7.71398C3.01969 7.74957 3.01286 7.7856 3.00439 7.82108C3.06234 7.83464 3.12082 7.80024 3.13666 7.74285C3.15218 7.68382 3.11887 7.62534 3.06147 7.60776C3.05084 7.64356 3.03879 7.6785 3.02924 7.71398Z" fill="#434A54"/>
<path d="M10.971 9.8418C10.981 9.80599 10.9876 9.77019 10.9961 9.73373C10.9377 9.72093 10.8794 9.75511 10.8639 9.81294C10.8481 9.87109 10.8814 9.93022 10.9388 9.94737C10.9496 9.91243 10.9619 9.8776 10.971 9.8418Z" fill="#434A54"/>
<path d="M2.88928 8.778C2.88928 8.8149 2.89199 8.85135 2.89308 8.88803C2.95265 8.88575 2.99996 8.83757 3.00039 8.77822C3.00018 8.71735 2.95265 8.66939 2.89286 8.66711C2.89221 8.70444 2.88928 8.74111 2.88928 8.778Z" fill="#434A54"/>
<path d="M11.1113 8.77779C11.1115 8.74046 11.1089 8.70422 11.1075 8.66689C11.0477 8.66982 11.0001 8.71778 11.0004 8.77757C11.0001 8.83779 11.0477 8.8864 11.1073 8.88825C11.1091 8.85157 11.1117 8.81468 11.1113 8.77779Z" fill="#434A54"/>
<path d="M3.02943 9.84201C3.03898 9.8776 3.05103 9.91199 3.06144 9.94736C3.11841 9.92978 3.15172 9.87087 3.13708 9.81337C3.12102 9.75445 3.06264 9.72049 3.00415 9.73405C3.01327 9.77018 3.01988 9.80621 3.02943 9.84201Z" fill="#434A54"/>
<path d="M10.9711 7.71376C10.9618 7.67752 10.9497 7.64335 10.9389 7.60754C10.882 7.62577 10.8482 7.68447 10.864 7.74197C10.8793 7.80024 10.9378 7.83507 10.9959 7.82107C10.9881 7.78559 10.9811 7.74914 10.9711 7.71376Z" fill="#434A54"/>
<path d="M3.44023 10.8333C3.45867 10.8653 3.47907 10.8955 3.49828 10.9268C3.54895 10.895 3.56577 10.8295 3.53669 10.778C3.50576 10.7253 3.44066 10.7076 3.38782 10.7358C3.40605 10.7682 3.42156 10.8011 3.44023 10.8333Z" fill="#434A54"/>
<path d="M10.5605 6.72222C10.542 6.68978 10.5216 6.65951 10.5018 6.62804C10.4516 6.66048 10.434 6.72558 10.4644 6.77734C10.4943 6.82953 10.5598 6.84798 10.6122 6.81955C10.5958 6.78711 10.5791 6.75401 10.5605 6.72222Z" fill="#434A54"/>
<path d="M4.09344 11.6845C4.1197 11.7104 4.14726 11.735 4.17374 11.76C4.21432 11.7165 4.21388 11.6485 4.17232 11.6065C4.12903 11.5636 4.06121 11.5632 4.0177 11.604C4.04342 11.6307 4.06729 11.6585 4.09344 11.6845Z" fill="#434A54"/>
<path d="M9.90726 5.87067C9.88099 5.84419 9.85343 5.82021 9.82641 5.79493C9.78615 5.83909 9.78615 5.9067 9.8288 5.94869C9.87101 5.99155 9.93927 5.99242 9.98257 5.9513C9.95815 5.92428 9.9333 5.8965 9.90726 5.87067Z" fill="#434A54"/>
<path d="M4.9448 12.3378C4.97703 12.3563 5.0099 12.3724 5.04213 12.3898C5.06991 12.3374 5.0519 12.2718 5.00101 12.2418C4.94795 12.2114 4.88241 12.2284 4.85083 12.2795C4.88284 12.2988 4.91257 12.3194 4.9448 12.3378Z" fill="#434A54"/>
<path d="M9.05572 5.21734C9.02349 5.19846 8.99082 5.18295 8.95816 5.16537C8.93082 5.21843 8.94818 5.28353 9.00016 5.31315C9.05213 5.34397 9.11822 5.32715 9.14947 5.27583C9.11865 5.25575 9.08773 5.23557 9.05572 5.21734Z" fill="#434A54"/>
<path d="M5.93634 12.7483C5.97214 12.7578 6.00817 12.7649 6.04344 12.7733C6.05678 12.7154 6.02238 12.6569 5.96553 12.6408C5.90617 12.6253 5.84747 12.6589 5.83032 12.7163C5.86613 12.7267 5.90064 12.7387 5.93634 12.7483Z" fill="#434A54"/>
<path d="M8.06426 4.80643C8.02845 4.79666 7.99265 4.79004 7.95652 4.78158C7.94383 4.83995 7.97757 4.89822 8.0354 4.9133C8.09355 4.9298 8.1529 4.89649 8.16983 4.83865C8.13489 4.82758 8.09985 4.81576 8.06426 4.80643Z" fill="#434A54"/>
<path d="M10.1502 8.85645C10.1069 8.81316 10.106 8.74176 10.1495 8.69846C10.1929 8.65517 10.2625 8.65419 10.3056 8.69759L10.3073 8.69933C10.3507 8.74241 10.3507 8.81316 10.3073 8.85645C10.264 8.89975 10.1936 8.89975 10.1502 8.85645Z" fill="#CCD1D9"/>
<path d="M3.70549 8.85645C3.66219 8.81316 3.66133 8.74176 3.70484 8.69846C3.74824 8.65517 3.81779 8.65419 3.86087 8.69759L3.8626 8.69933C3.90601 8.74241 3.90601 8.81316 3.8626 8.85645C3.81931 8.89975 3.74867 8.89975 3.70549 8.85645Z" fill="#CCD1D9"/>
<path d="M9.71821 7.24533C9.67492 7.20203 9.67405 7.13063 9.71734 7.08733C9.76064 7.04403 9.83041 7.04305 9.87359 7.08646L9.87533 7.0882C9.9184 7.13128 9.91862 7.20203 9.87533 7.24533C9.83203 7.28863 9.7615 7.28863 9.71821 7.24533Z" fill="#CCD1D9"/>
<path d="M4.13722 10.4676C4.09382 10.4241 4.09295 10.3529 4.13647 10.3096C4.17987 10.2663 4.24943 10.2653 4.2925 10.3087L4.29435 10.3102C4.33765 10.3535 4.33765 10.4241 4.29435 10.4676C4.25095 10.5111 4.18074 10.5109 4.13722 10.4676Z" fill="#CCD1D9"/>
<path d="M8.53909 6.06573C8.49558 6.02244 8.49493 5.95126 8.53822 5.90796C8.58163 5.86467 8.65118 5.8638 8.69447 5.90688L8.69621 5.90861C8.7394 5.95202 8.73961 6.02244 8.69621 6.06573C8.6527 6.10913 8.58228 6.10913 8.53909 6.06573Z" fill="#CCD1D9"/>
<path d="M5.31684 11.6469C5.27355 11.6035 5.27268 11.5322 5.31598 11.4889C5.35938 11.4455 5.42915 11.4447 5.47222 11.488L5.47396 11.4898C5.51714 11.5329 5.51736 11.6035 5.47396 11.6469C5.43067 11.6902 5.36003 11.69 5.31684 11.6469Z" fill="#CCD1D9"/>
<path d="M6.92768 5.63423C6.88439 5.59094 6.88352 5.51954 6.92682 5.47625C6.97022 5.43296 7.03999 5.4322 7.08306 5.47538L7.0848 5.47712C7.12798 5.52019 7.1282 5.59094 7.0848 5.63423C7.04151 5.67753 6.97087 5.67753 6.92768 5.63423Z" fill="#CCD1D9"/>
<path d="M6.92801 12.0787C6.8845 12.0354 6.88385 11.964 6.92714 11.9207C6.97054 11.8774 7.0401 11.8767 7.08339 11.9198L7.08513 11.9216C7.12831 11.9646 7.12853 12.0354 7.08513 12.0787C7.04183 12.122 6.97119 12.1218 6.92801 12.0787Z" fill="#CCD1D9"/>
<path d="M5.31684 6.06573C5.27355 6.02244 5.27268 5.95126 5.31598 5.90796C5.35938 5.86467 5.42915 5.8638 5.47222 5.90688L5.47396 5.90861C5.51714 5.95202 5.51736 6.02244 5.47396 6.06573C5.43067 6.10913 5.36003 6.10913 5.31684 6.06573Z" fill="#CCD1D9"/>
<path d="M8.53909 11.6469C8.49558 11.6035 8.49493 11.5322 8.53822 11.4889C8.58163 11.4455 8.65118 11.4447 8.69447 11.488L8.69621 11.4898C8.7394 11.5329 8.73961 11.6035 8.69621 11.6469C8.6527 11.6902 8.58228 11.69 8.53909 11.6469Z" fill="#CCD1D9"/>
<path d="M4.13722 7.24536C4.09382 7.20206 4.09295 7.13066 4.13647 7.08737C4.17987 7.04407 4.24943 7.04331 4.2925 7.0865L4.29435 7.08823C4.33765 7.13131 4.33765 7.20206 4.29435 7.24536C4.25095 7.28865 4.18074 7.28865 4.13722 7.24536Z" fill="#CCD1D9"/>
<path d="M9.71821 10.4673C9.67492 10.424 9.67405 10.3529 9.71734 10.3096C9.76064 10.2659 9.83019 10.2653 9.87359 10.3085L9.87533 10.3102C9.9184 10.3533 9.91862 10.424 9.87533 10.4673C9.83203 10.5106 9.7615 10.5106 9.71821 10.4673Z" fill="#CCD1D9"/>
<path d="M7.23577 8.54221C7.36685 8.6709 7.36685 8.88205 7.23577 9.01313C7.1711 9.0778 7.0869 9.11111 6.99999 9.11111C6.91557 9.11111 6.83115 9.0778 6.7642 9.01335C6.63312 8.88227 6.63312 8.67111 6.7642 8.54242C6.89528 8.41113 7.10665 8.41113 7.23577 8.54221Z" fill="#656D78"/>
</svg>
