<svg width="10" height="10" viewBox="0 0 10 10" fill="none" xmlns="http://www.w3.org/2000/svg">
<path d="M8.62907 0.483871H2.01617V0.16129C2.01617 0.0722177 1.94395 0 1.85488 0H1.37101C1.28193 0 1.20972 0.0722177 1.20972 0.16129V9.83871C1.20972 9.92778 1.28193 10 1.37101 10H1.85488C1.94395 10 2.01617 9.92778 2.01617 9.83871V5.96774H8.62907C8.71814 5.96774 8.79036 5.89552 8.79036 5.80645V0.645161C8.79036 0.556089 8.71814 0.483871 8.62907 0.483871ZM1.69359 9.67742H1.5323V0.322581H1.69359V9.67742ZM8.46778 2.41935H6.85488V4.03226H8.46778V5.64516H6.85488V4.03226H5.24197V5.64516H3.62907V4.03226H2.01617V2.41935H3.62907V0.806452H5.24197V2.41935H6.85488V0.806452H8.46778V2.41935Z" fill="#5C6571"/>
<path d="M5.24205 2.41936H3.62915V4.03226H5.24205V2.41936Z" fill="#5C6571"/>
</svg>
